<svg width="84" height="20" viewBox="0 0 84 20" fill="none" xmlns="http://www.w3.org/2000/svg">
<g clip-path="url(#clip0_1874_6890)">
<path fill-rule="evenodd" clip-rule="evenodd" d="M17.2969 3.07L17.4021 3.70624C17.4851 4.29812 17.5235 4.8954 17.5171 5.49304C17.5164 6.81374 17.3571 8.12954 17.0425 9.41224C16.6172 11.1549 15.8763 12.8049 14.8566 14.2806C13.6782 15.9754 11.9744 17.6423 9.4909 18.9817L9.18705 19.1455L8.88325 18.9817C6.39975 17.6423 4.69666 15.9754 3.51762 14.2806C2.4979 12.8049 1.75703 11.1549 1.33164 9.41224C1.01718 8.12979 0.85785 6.81419 0.857095 5.49374C0.850675 4.89609 0.88911 4.29882 0.972075 3.70694L1.0773 3.07069C1.08628 3.01881 1.0849 2.96565 1.07325 2.9143C1.0616 2.86295 1.0399 2.81441 1.0094 2.77148C0.978905 2.72855 0.940215 2.69208 0.89556 2.66417C0.850905 2.63626 0.80117 2.61747 0.74922 2.60887C0.69727 2.60027 0.644135 2.60204 0.59287 2.61408C0.541605 2.62611 0.493232 2.64817 0.450532 2.67899C0.407833 2.7098 0.371654 2.74876 0.34408 2.79362C0.316506 2.83849 0.298082 2.88836 0.28987 2.94038L0.184648 3.57662C0.094142 4.21154 0.0519785 4.85242 0.0585205 5.49374C0.059022 6.87924 0.226068 8.25964 0.55606 9.60529C1.00526 11.4429 1.78724 13.1826 2.86329 14.7384C4.10714 16.5287 5.91125 18.289 8.50765 19.6862L9.001 19.9517C9.05915 19.9832 9.12415 19.9996 9.1902 19.9996C9.25625 19.9996 9.3213 19.9832 9.3794 19.9517L9.87205 19.6862C12.4657 18.2883 14.2705 16.5287 15.5165 14.7384C16.592 13.1827 17.3735 11.4432 17.8223 9.60599C18.1523 8.26034 18.3193 6.87994 18.3198 5.49444C18.3264 4.85312 18.2842 4.21224 18.1937 3.57732L18.0885 2.94108C18.0803 2.88906 18.0618 2.83918 18.0343 2.79432C18.0067 2.74946 17.9705 2.7105 17.9278 2.67968C17.8851 2.64887 17.8367 2.62681 17.7855 2.61477C17.7342 2.60274 17.6811 2.60097 17.6291 2.60957C17.5772 2.61817 17.5274 2.63696 17.4828 2.66487C17.4381 2.69277 17.3994 2.72924 17.369 2.77217C17.3385 2.8151 17.3168 2.86364 17.3051 2.915C17.2935 2.96635 17.2921 3.0195 17.3011 3.07139L17.2969 3.07Z" fill="white"/>
<path fill-rule="evenodd" clip-rule="evenodd" d="M3.25779 2.63724L9.18805 0.825384L15.2507 2.67627C15.3522 2.70661 15.4616 2.69551 15.5549 2.6454C15.6482 2.59528 15.7179 2.51024 15.7487 2.40887C15.7795 2.3075 15.7688 2.19807 15.7191 2.10452C15.6694 2.01097 15.5847 1.94092 15.4834 1.90971L9.3044 0.02329C9.2286 4.91631e-05 9.1475 4.91631e-05 9.07165 0.02329L3.02434 1.86929C2.9738 1.8844 2.92675 1.90934 2.88588 1.94268C2.84501 1.97603 2.81113 2.01711 2.78617 2.06358C2.76122 2.11005 2.7457 2.161 2.74048 2.21348C2.73527 2.26597 2.74048 2.31897 2.7558 2.36944C2.77113 2.41992 2.79627 2.46686 2.82978 2.50759C2.8633 2.54832 2.90453 2.58203 2.95111 2.60678C2.99768 2.63153 3.04869 2.64684 3.1012 2.65183C3.15371 2.65682 3.20669 2.65139 3.25709 2.63585L3.25779 2.63724Z" fill="white"/>
<path fill-rule="evenodd" clip-rule="evenodd" d="M0.329483 3.18796L8.83145 19.7819C8.8646 19.8468 8.9149 19.9013 8.97685 19.9396C9.0388 19.9779 9.11005 19.9985 9.1829 19.9991C9.2557 19.9998 9.3273 19.9805 9.38995 19.9433C9.45255 19.9061 9.5038 19.8524 9.5381 19.7882L14.7229 10.0912L14.7305 10.0759L18.0492 3.17681C18.0941 3.0816 18.0997 2.97249 18.0646 2.87319C18.0296 2.77389 17.9569 2.69242 17.862 2.64651C17.7673 2.6006 17.6582 2.59395 17.5586 2.628C17.459 2.66206 17.3768 2.73407 17.33 2.82837L14.0169 9.72183L9.1987 18.7394L1.03961 2.8228C1.01609 2.77554 0.983435 2.73342 0.94352 2.69887C0.90361 2.66433 0.85724 2.63804 0.807095 2.62155C0.756955 2.60505 0.70404 2.59867 0.65141 2.60277C0.598785 2.60687 0.547495 2.62138 0.500515 2.64544C0.453533 2.66951 0.411796 2.70266 0.377719 2.74297C0.343642 2.78328 0.317904 2.82996 0.301996 2.88029C0.286088 2.93062 0.280326 2.98361 0.285044 3.03618C0.289763 3.08876 0.304867 3.13987 0.329483 3.18657V3.18796Z" fill="white"/>
<path fill-rule="evenodd" clip-rule="evenodd" d="M4.39932 10.5777H13.8537C13.9595 10.5777 14.061 10.5357 14.1358 10.4609C14.2106 10.3861 14.2527 10.2846 14.2527 10.1788C14.2527 10.073 14.2106 9.97151 14.1358 9.89666C14.061 9.82186 13.9595 9.77981 13.8537 9.77981H4.39932C4.29351 9.77981 4.19204 9.82186 4.11722 9.89666C4.0424 9.97151 4.00037 10.073 4.00037 10.1788C4.00037 10.2846 4.0424 10.3861 4.11722 10.4609C4.19204 10.5357 4.29351 10.5777 4.39932 10.5777ZM30.7701 7.13521H24.6196C24.5133 7.13576 24.4115 7.17826 24.3363 7.25341C24.2612 7.32856 24.2187 7.43031 24.2182 7.53661V12.4732C24.2189 12.5794 24.2614 12.6811 24.3365 12.7562C24.4116 12.8314 24.5133 12.8739 24.6196 12.8746H30.7701V13.7108H24.6196C24.4573 13.7116 24.2965 13.6802 24.1464 13.6184C23.9963 13.5566 23.86 13.4658 23.7452 13.351C23.6305 13.2363 23.5396 13.0999 23.4778 12.9499C23.4161 12.7998 23.3847 12.639 23.3854 12.4767V7.54011C23.3847 7.37781 23.4161 7.21701 23.4778 7.06696C23.5396 6.91686 23.6305 6.78051 23.7452 6.66576C23.86 6.55101 23.9963 6.46016 24.1464 6.39841C24.2965 6.33661 24.4573 6.30521 24.6196 6.30596H30.7701V7.13521ZM42.3192 6.30176V7.13801H36.3959V9.58191H41.1568V10.4251H36.3952V12.8732H42.3185V13.7095H35.5589V6.30176H42.3192Z" fill="white"/>
<path d="M54.5165 7.54568V9.71573C54.5175 9.87798 54.486 10.0387 54.424 10.1888C54.362 10.3388 54.2715 10.4751 54.1565 10.5898C54.042 10.7046 53.9055 10.7954 53.7555 10.8572C53.6055 10.919 53.4445 10.9505 53.2825 10.9499H52.1515L54.4755 13.706H53.375L51.061 10.9499H48.3431C48.2087 10.943 48.0747 10.9293 47.9417 10.9088V13.706H47.1055V6.31153H53.276C53.4385 6.31088 53.599 6.34238 53.749 6.40418C53.8995 6.46598 54.0355 6.55683 54.1505 6.67158C54.265 6.78633 54.356 6.92263 54.4175 7.07263C54.4795 7.22268 54.511 7.38343 54.5105 7.54568H54.5165ZM48.3459 10.1067H53.2825C53.334 10.1073 53.385 10.0977 53.433 10.0782C53.4805 10.0588 53.524 10.0301 53.5605 9.99363C53.597 9.95718 53.6255 9.91383 53.645 9.86613C53.6645 9.81838 53.674 9.76723 53.6735 9.71573V7.54568C53.674 7.49343 53.6645 7.44148 53.6455 7.39293C53.626 7.34438 53.597 7.30013 53.5605 7.26278C53.525 7.22453 53.482 7.19418 53.434 7.17378C53.386 7.15333 53.334 7.14333 53.282 7.14428H48.3452C48.2389 7.14483 48.1372 7.18733 48.062 7.26248C47.9868 7.33763 47.9444 7.43943 47.9438 7.54568V9.71573C47.9427 9.76793 47.9527 9.81973 47.9732 9.86778C47.9936 9.91583 48.024 9.95903 48.0623 9.99448C48.0997 10.0311 48.1441 10.0599 48.1928 10.0791C48.2415 10.0984 48.2935 10.1078 48.3459 10.1067Z" fill="white"/>
<path fill-rule="evenodd" clip-rule="evenodd" d="M58.9395 6.30176H66.3415V7.13801H63.0665V13.7101H62.23V7.13801H58.9395V6.30176ZM70.828 13.7067V6.30176H71.6645V13.7067H70.828ZM82.7785 6.30176H83.8485L80.753 10.0042L83.8585 13.7067H82.7785L80.0225 10.4258H77.6365V13.7067H76.7945V6.30176H77.638V9.58191H80.024L82.7785 6.30176Z" fill="white"/>
</g>
<defs>
<clipPath id="clip0_1874_6890">
<rect width="84" height="20" fill="white"/>
</clipPath>
</defs>
</svg>
