<svg width="94" height="20" viewBox="0 0 94 20" fill="none" xmlns="http://www.w3.org/2000/svg">
<path fill-rule="evenodd" clip-rule="evenodd" d="M5.61248 8.43164L12.0539 14.9887L18.4265 8.50168L23.6515 13.8204L17.5807 20.0002L16.019 18.4528L20.5696 13.8204L18.4265 11.6388L12.0539 18.1258L5.61248 11.5688L3.49542 13.7239L8.11529 18.4267L6.55356 19.9741L0.413574 13.7239L5.61248 8.43164Z" fill="white"/>
<path fill-rule="evenodd" clip-rule="evenodd" d="M18.4526 11.5685L12.0112 5.01156L5.63861 11.4985L0.413574 6.17973L6.48434 0L8.04607 1.5474L3.49542 6.17973L5.63861 8.3614L12.0112 1.87438L18.4526 8.43139L20.5697 6.27627L15.9498 1.57349L17.5115 0.0260859L23.6515 6.27627L18.4526 11.5685Z" fill="white"/>
<path fill-rule="evenodd" clip-rule="evenodd" d="M11.0496 19.847V15.7158H13.153V19.847H11.0496Z" fill="white"/>
<path fill-rule="evenodd" clip-rule="evenodd" d="M11.0496 4.28546V0.154297H13.153V4.28546H11.0496Z" fill="white"/>
<path d="M30.7397 4.87793H28.6437V15.4312H30.7397V4.87793Z" fill="white"/>
<path d="M41.3712 7.66211C40.4185 7.66211 39.5097 8.07255 39.0554 8.96665C38.5863 8.07255 37.7069 7.66211 36.6808 7.66211C35.7574 7.66211 35.0539 8.01389 34.6875 8.64417L34.4676 7.80872H32.5621V15.4305H34.6142V11.1652C34.6142 10.0366 35.2005 9.4943 36.0652 9.4943C36.8861 9.4943 37.4431 10.0073 37.4431 11.2532V15.4305H39.4218V11.2092C39.4511 10.022 40.0667 9.4943 40.8728 9.4943C41.7083 9.4943 42.2506 10.0073 42.2506 11.1506V15.4451H44.3173V10.7402C44.3173 8.6295 42.8956 7.66211 41.3712 7.66211Z" fill="white"/>
<path d="M54.755 7.66211C53.802 7.66211 52.8935 8.07255 52.4392 8.96665C51.97 8.07255 51.0904 7.66211 50.0646 7.66211C49.1412 7.66211 48.4376 8.01389 48.0712 8.64417L47.8513 7.80872H45.9459V15.4305H47.998V11.1652C47.998 10.0366 48.5842 9.4943 49.449 9.4943C50.2698 9.4943 50.8268 10.0073 50.8268 11.2532V15.4305H52.8056V11.2092C52.8346 10.022 53.4506 9.4943 54.2568 9.4943C55.092 9.4943 55.6346 10.0073 55.6346 11.1506V15.4451H57.7012V10.7402C57.7012 8.6295 56.2795 7.66211 54.755 7.66211Z" fill="white"/>
<path d="M64.3267 7.80859V11.9859C64.3267 13.1145 63.799 13.7887 62.7877 13.8034C61.8202 13.8327 61.2047 13.2611 61.2047 12.0739V7.80859H59.2554V12.3377C59.2554 14.2871 60.3836 15.577 62.3334 15.577C63.2419 15.577 63.9014 15.1665 64.2972 14.5949L64.4001 15.4304H66.276V7.80859H64.3267Z" fill="white"/>
<path d="M72.2989 7.66211C71.1557 7.66211 70.3935 8.08717 69.9976 8.71746L69.8803 7.80872H67.9749V15.4305H70.027V11.3997C70.027 10.1685 70.6131 9.42102 71.6978 9.42102C72.6947 9.42102 73.2958 10.0659 73.2958 11.3264V15.4305H75.3624V10.9014C75.3624 8.95198 74.2482 7.66211 72.2989 7.66211Z" fill="white"/>
<path d="M84.3356 11.5024C84.3356 9.17182 82.8255 7.66211 80.5537 7.66211C78.2818 7.66211 76.7578 9.2451 76.7578 11.6196C76.7578 14.0088 78.2819 15.5917 80.5687 15.5917C82.4886 15.5917 83.9397 14.5217 84.2767 12.9387H82.21C81.9759 13.5983 81.3749 13.9354 80.6271 13.9354C79.6451 13.9354 78.8534 13.3052 78.8245 12.1766H84.3356V11.5024ZM80.5537 9.25978C81.4477 9.25978 82.1955 9.7728 82.2834 10.8281H78.8389C78.9268 9.7728 79.6746 9.25978 80.5537 9.25978Z" fill="white"/>
<path d="M85.1367 7.80871V9.59688H86.3093V15.4305H88.376V9.59688H90.1202V7.80871H88.376V7.03187C88.376 6.48954 88.5223 6.07916 89.3579 6.07916H90.1202V4.4082H88.9036C86.9832 4.4082 86.3093 5.34629 86.3093 6.82665V7.80871H85.1367Z" fill="white"/>
<path d="M91.4758 6.63611H93.557L93.5864 4.4082H91.5053L91.4758 6.63611ZM91.5053 15.4305H93.557V7.80871H91.5053V15.4305Z" fill="white"/>
</svg>
