<svg width="210" height="32" viewBox="0 0 210 32" fill="none" xmlns="http://www.w3.org/2000/svg">
<g clip-path="url(#clip0_4333_20829)">
<g filter="url(#filter0_f_4333_20829)">
<path d="M77 18C75.8954 18 75 17.1046 75 16C75 14.8954 75.8954 14 77 14C78.1046 14 79 14.8954 79 16C79 17.1046 78.1046 18 77 18Z" fill="#04A8F0"/>
</g>
<g filter="url(#filter1_f_4333_20829)">
<path d="M1.5 16H76.5C76.7761 16 77 16.2239 77 16.5C77 16.7761 76.7761 17 76.5 17H1.5C1.22385 17 1 16.7761 1 16.5C1 16.2239 1.22385 16 1.5 16Z" fill="url(#paint0_linear_4333_20829)"/>
</g>
</g>
<circle cx="105" cy="16" r="15.5" fill="#162030" stroke="url(#paint1_linear_4333_20829)"/>
<g clip-path="url(#clip1_4333_20829)">
<g filter="url(#filter2_f_4333_20829)">
<path d="M137 18C138.105 18 139 17.1046 139 16C139 14.8954 138.105 14 137 14C135.895 14 135 14.8954 135 16C135 17.1046 135.895 18 137 18Z" fill="#04A8F0"/>
</g>
<g filter="url(#filter3_f_4333_20829)">
<path d="M212.5 16H137.5C137.224 16 137 16.2239 137 16.5C137 16.7761 137.224 17 137.5 17H212.5C212.776 17 213 16.7761 213 16.5C213 16.2239 212.776 16 212.5 16Z" fill="url(#paint2_linear_4333_20829)"/>
</g>
</g>
<path fill-rule="evenodd" clip-rule="evenodd" d="M99.6339 15.0739H101.441V13.3437H99.6339V15.0739Z" fill="url(#paint3_radial_4333_20829)"/>
<path fill-rule="evenodd" clip-rule="evenodd" d="M97 15.0739H98.7301V13.3437H97V15.0739Z" fill="url(#paint4_radial_4333_20829)"/>
<path fill-rule="evenodd" clip-rule="evenodd" d="M97 21.2413H98.7301V19.1859H97V21.2413Z" fill="url(#paint5_radial_4333_20829)"/>
<path fill-rule="evenodd" clip-rule="evenodd" d="M97 18.1576H98.7301V16.1017H97V18.1576Z" fill="url(#paint6_radial_4333_20829)"/>
<path fill-rule="evenodd" clip-rule="evenodd" d="M97 23.9995H98.7301V22.2693H97V23.9995Z" fill="url(#paint7_radial_4333_20829)"/>
<path fill-rule="evenodd" clip-rule="evenodd" d="M99.7583 23.9995H101.814V22.2693H99.7583V23.9995Z" fill="url(#paint8_radial_4333_20829)"/>
<path fill-rule="evenodd" clip-rule="evenodd" d="M102.842 23.9995H104.898V22.2693H102.842V23.9995Z" fill="url(#paint9_radial_4333_20829)"/>
<path fill-rule="evenodd" clip-rule="evenodd" d="M105.926 23.9995H107.656V22.2693H105.926V23.9995Z" fill="url(#paint10_radial_4333_20829)"/>
<path fill-rule="evenodd" clip-rule="evenodd" d="M105.926 21.3657H107.656V19.559H105.926V21.3657Z" fill="url(#paint11_radial_4333_20829)"/>
<path fill-rule="evenodd" clip-rule="evenodd" d="M108.56 18.656H110.366V16.9258H108.56V18.656Z" fill="url(#paint12_radial_4333_20829)"/>
<path fill-rule="evenodd" clip-rule="evenodd" d="M111.27 18.656H113V16.9258H111.27V18.656Z" fill="url(#paint13_radial_4333_20829)"/>
<path fill-rule="evenodd" clip-rule="evenodd" d="M111.27 15.8975H113V13.8416H111.27V15.8975Z" fill="url(#paint14_radial_4333_20829)"/>
<path fill-rule="evenodd" clip-rule="evenodd" d="M111.27 12.8138H113V10.7584H111.27V12.8138Z" fill="url(#paint15_radial_4333_20829)"/>
<path fill-rule="evenodd" clip-rule="evenodd" d="M111.27 9.73015H113V8H111.27V9.73015Z" fill="url(#paint16_radial_4333_20829)"/>
<path fill-rule="evenodd" clip-rule="evenodd" d="M108.186 9.73015H110.242V8H108.186V9.73015Z" fill="url(#paint17_radial_4333_20829)"/>
<path fill-rule="evenodd" clip-rule="evenodd" d="M105.102 9.73015H107.158V8H105.102V9.73015Z" fill="url(#paint18_radial_4333_20829)"/>
<path fill-rule="evenodd" clip-rule="evenodd" d="M102.344 9.73015H104.075V8H102.344V9.73015Z" fill="url(#paint19_radial_4333_20829)"/>
<path fill-rule="evenodd" clip-rule="evenodd" d="M102.344 12.4402H104.075V10.6333H102.344V12.4402Z" fill="url(#paint20_radial_4333_20829)"/>
<path fill-rule="evenodd" clip-rule="evenodd" d="M104.074 16.9257H105.926V15.0739H104.074V16.9257ZM104.074 13.3433H102.344V13.3438H102.344V15.0739H102.344V18.656H107.656V13.3439H104.074L104.074 13.3433Z" fill="url(#paint21_radial_4333_20829)"/>
<defs>
<filter id="filter0_f_4333_20829" x="73" y="12" width="8" height="8" filterUnits="userSpaceOnUse" color-interpolation-filters="sRGB">
<feFlood flood-opacity="0" result="BackgroundImageFix"/>
<feBlend mode="normal" in="SourceGraphic" in2="BackgroundImageFix" result="shape"/>
<feGaussianBlur stdDeviation="1" result="effect1_foregroundBlur_4333_20829"/>
</filter>
<filter id="filter1_f_4333_20829" x="0" y="15" width="78" height="3" filterUnits="userSpaceOnUse" color-interpolation-filters="sRGB">
<feFlood flood-opacity="0" result="BackgroundImageFix"/>
<feBlend mode="normal" in="SourceGraphic" in2="BackgroundImageFix" result="shape"/>
<feGaussianBlur stdDeviation="0.5" result="effect1_foregroundBlur_4333_20829"/>
</filter>
<filter id="filter2_f_4333_20829" x="133" y="12" width="8" height="8" filterUnits="userSpaceOnUse" color-interpolation-filters="sRGB">
<feFlood flood-opacity="0" result="BackgroundImageFix"/>
<feBlend mode="normal" in="SourceGraphic" in2="BackgroundImageFix" result="shape"/>
<feGaussianBlur stdDeviation="1" result="effect1_foregroundBlur_4333_20829"/>
</filter>
<filter id="filter3_f_4333_20829" x="136" y="15" width="78" height="3" filterUnits="userSpaceOnUse" color-interpolation-filters="sRGB">
<feFlood flood-opacity="0" result="BackgroundImageFix"/>
<feBlend mode="normal" in="SourceGraphic" in2="BackgroundImageFix" result="shape"/>
<feGaussianBlur stdDeviation="0.5" result="effect1_foregroundBlur_4333_20829"/>
</filter>
<linearGradient id="paint0_linear_4333_20829" x1="77" y1="16" x2="1" y2="16" gradientUnits="userSpaceOnUse">
<stop stop-color="#A7A7A7" stop-opacity="0"/>
<stop offset="0.191214" stop-color="#04A8F0" stop-opacity="0.27"/>
<stop offset="0.48198" stop-color="#04A8F0"/>
<stop offset="0.746451" stop-color="#04A8F0" stop-opacity="0.42"/>
<stop offset="1" stop-color="#A7A7A7" stop-opacity="0"/>
</linearGradient>
<linearGradient id="paint1_linear_4333_20829" x1="105" y1="1" x2="106" y2="32" gradientUnits="userSpaceOnUse">
<stop stop-color="white" stop-opacity="0.81"/>
<stop offset="0.470286" stop-color="white" stop-opacity="0"/>
<stop offset="0.898958" stop-color="white" stop-opacity="0.17"/>
</linearGradient>
<linearGradient id="paint2_linear_4333_20829" x1="137" y1="16" x2="213" y2="16" gradientUnits="userSpaceOnUse">
<stop stop-color="#A7A7A7" stop-opacity="0"/>
<stop offset="0.191214" stop-color="#04A8F0" stop-opacity="0.27"/>
<stop offset="0.48198" stop-color="#04A8F0"/>
<stop offset="0.746451" stop-color="#04A8F0" stop-opacity="0.42"/>
<stop offset="1" stop-color="#A7A7A7" stop-opacity="0"/>
</linearGradient>
<radialGradient id="paint3_radial_4333_20829" cx="0" cy="0" r="1" gradientUnits="userSpaceOnUse" gradientTransform="translate(106.5 16.5) rotate(135) scale(11.3137 11.3141)">
<stop stop-color="#04A8F0" stop-opacity="0"/>
<stop offset="0.425854" stop-color="#04A8F0"/>
<stop offset="1" stop-color="#04A8F0" stop-opacity="0"/>
</radialGradient>
<radialGradient id="paint4_radial_4333_20829" cx="0" cy="0" r="1" gradientUnits="userSpaceOnUse" gradientTransform="translate(106.5 16.5) rotate(135) scale(11.3137 11.3141)">
<stop stop-color="#04A8F0" stop-opacity="0"/>
<stop offset="0.425854" stop-color="#04A8F0"/>
<stop offset="1" stop-color="#04A8F0" stop-opacity="0"/>
</radialGradient>
<radialGradient id="paint5_radial_4333_20829" cx="0" cy="0" r="1" gradientUnits="userSpaceOnUse" gradientTransform="translate(106.5 16.5) rotate(135) scale(11.3137 11.3141)">
<stop stop-color="#04A8F0" stop-opacity="0"/>
<stop offset="0.425854" stop-color="#04A8F0"/>
<stop offset="1" stop-color="#04A8F0" stop-opacity="0"/>
</radialGradient>
<radialGradient id="paint6_radial_4333_20829" cx="0" cy="0" r="1" gradientUnits="userSpaceOnUse" gradientTransform="translate(106.5 16.5) rotate(135) scale(11.3137 11.3141)">
<stop stop-color="#04A8F0" stop-opacity="0"/>
<stop offset="0.425854" stop-color="#04A8F0"/>
<stop offset="1" stop-color="#04A8F0" stop-opacity="0"/>
</radialGradient>
<radialGradient id="paint7_radial_4333_20829" cx="0" cy="0" r="1" gradientUnits="userSpaceOnUse" gradientTransform="translate(106.5 16.5) rotate(135) scale(11.3137 11.3141)">
<stop stop-color="#04A8F0" stop-opacity="0"/>
<stop offset="0.425854" stop-color="#04A8F0"/>
<stop offset="1" stop-color="#04A8F0" stop-opacity="0"/>
</radialGradient>
<radialGradient id="paint8_radial_4333_20829" cx="0" cy="0" r="1" gradientUnits="userSpaceOnUse" gradientTransform="translate(106.5 16.5) rotate(135) scale(11.3137 11.3141)">
<stop stop-color="#04A8F0" stop-opacity="0"/>
<stop offset="0.425854" stop-color="#04A8F0"/>
<stop offset="1" stop-color="#04A8F0" stop-opacity="0"/>
</radialGradient>
<radialGradient id="paint9_radial_4333_20829" cx="0" cy="0" r="1" gradientUnits="userSpaceOnUse" gradientTransform="translate(106.5 16.5) rotate(135) scale(11.3137 11.3141)">
<stop stop-color="#04A8F0" stop-opacity="0"/>
<stop offset="0.425854" stop-color="#04A8F0"/>
<stop offset="1" stop-color="#04A8F0" stop-opacity="0"/>
</radialGradient>
<radialGradient id="paint10_radial_4333_20829" cx="0" cy="0" r="1" gradientUnits="userSpaceOnUse" gradientTransform="translate(106.5 16.5) rotate(135) scale(11.3137 11.3141)">
<stop stop-color="#04A8F0" stop-opacity="0"/>
<stop offset="0.425854" stop-color="#04A8F0"/>
<stop offset="1" stop-color="#04A8F0" stop-opacity="0"/>
</radialGradient>
<radialGradient id="paint11_radial_4333_20829" cx="0" cy="0" r="1" gradientUnits="userSpaceOnUse" gradientTransform="translate(106.5 16.5) rotate(135) scale(11.3137 11.3141)">
<stop stop-color="#04A8F0" stop-opacity="0"/>
<stop offset="0.425854" stop-color="#04A8F0"/>
<stop offset="1" stop-color="#04A8F0" stop-opacity="0"/>
</radialGradient>
<radialGradient id="paint12_radial_4333_20829" cx="0" cy="0" r="1" gradientUnits="userSpaceOnUse" gradientTransform="translate(106.5 16.5) rotate(135) scale(11.3137 11.3141)">
<stop stop-color="#04A8F0" stop-opacity="0"/>
<stop offset="0.425854" stop-color="#04A8F0"/>
<stop offset="1" stop-color="#04A8F0" stop-opacity="0"/>
</radialGradient>
<radialGradient id="paint13_radial_4333_20829" cx="0" cy="0" r="1" gradientUnits="userSpaceOnUse" gradientTransform="translate(106.5 16.5) rotate(135) scale(11.3137 11.3141)">
<stop stop-color="#04A8F0" stop-opacity="0"/>
<stop offset="0.425854" stop-color="#04A8F0"/>
<stop offset="1" stop-color="#04A8F0" stop-opacity="0"/>
</radialGradient>
<radialGradient id="paint14_radial_4333_20829" cx="0" cy="0" r="1" gradientUnits="userSpaceOnUse" gradientTransform="translate(106.5 16.5) rotate(135) scale(11.3137 11.3141)">
<stop stop-color="#04A8F0" stop-opacity="0"/>
<stop offset="0.425854" stop-color="#04A8F0"/>
<stop offset="1" stop-color="#04A8F0" stop-opacity="0"/>
</radialGradient>
<radialGradient id="paint15_radial_4333_20829" cx="0" cy="0" r="1" gradientUnits="userSpaceOnUse" gradientTransform="translate(106.5 16.5) rotate(135) scale(11.3137 11.3141)">
<stop stop-color="#04A8F0" stop-opacity="0"/>
<stop offset="0.425854" stop-color="#04A8F0"/>
<stop offset="1" stop-color="#04A8F0" stop-opacity="0"/>
</radialGradient>
<radialGradient id="paint16_radial_4333_20829" cx="0" cy="0" r="1" gradientUnits="userSpaceOnUse" gradientTransform="translate(106.5 16.5) rotate(135) scale(11.3137 11.3141)">
<stop stop-color="#04A8F0" stop-opacity="0"/>
<stop offset="0.425854" stop-color="#04A8F0"/>
<stop offset="1" stop-color="#04A8F0" stop-opacity="0"/>
</radialGradient>
<radialGradient id="paint17_radial_4333_20829" cx="0" cy="0" r="1" gradientUnits="userSpaceOnUse" gradientTransform="translate(106.5 16.5) rotate(135) scale(11.3137 11.3141)">
<stop stop-color="#04A8F0" stop-opacity="0"/>
<stop offset="0.425854" stop-color="#04A8F0"/>
<stop offset="1" stop-color="#04A8F0" stop-opacity="0"/>
</radialGradient>
<radialGradient id="paint18_radial_4333_20829" cx="0" cy="0" r="1" gradientUnits="userSpaceOnUse" gradientTransform="translate(106.5 16.5) rotate(135) scale(11.3137 11.3141)">
<stop stop-color="#04A8F0" stop-opacity="0"/>
<stop offset="0.425854" stop-color="#04A8F0"/>
<stop offset="1" stop-color="#04A8F0" stop-opacity="0"/>
</radialGradient>
<radialGradient id="paint19_radial_4333_20829" cx="0" cy="0" r="1" gradientUnits="userSpaceOnUse" gradientTransform="translate(106.5 16.5) rotate(135) scale(11.3137 11.3141)">
<stop stop-color="#04A8F0" stop-opacity="0"/>
<stop offset="0.425854" stop-color="#04A8F0"/>
<stop offset="1" stop-color="#04A8F0" stop-opacity="0"/>
</radialGradient>
<radialGradient id="paint20_radial_4333_20829" cx="0" cy="0" r="1" gradientUnits="userSpaceOnUse" gradientTransform="translate(106.5 16.5) rotate(135) scale(11.3137 11.3141)">
<stop stop-color="#04A8F0" stop-opacity="0"/>
<stop offset="0.425854" stop-color="#04A8F0"/>
<stop offset="1" stop-color="#04A8F0" stop-opacity="0"/>
</radialGradient>
<radialGradient id="paint21_radial_4333_20829" cx="0" cy="0" r="1" gradientUnits="userSpaceOnUse" gradientTransform="translate(106.5 16.5) rotate(135) scale(11.3137 11.3141)">
<stop stop-color="#04A8F0" stop-opacity="0"/>
<stop offset="0.425854" stop-color="#04A8F0"/>
<stop offset="1" stop-color="#04A8F0" stop-opacity="0"/>
</radialGradient>
<clipPath id="clip0_4333_20829">
<rect width="81" height="8" fill="white" transform="translate(0 12)"/>
</clipPath>
<clipPath id="clip1_4333_20829">
<rect width="81" height="8" fill="white" transform="matrix(-1 0 0 1 210 12)"/>
</clipPath>
</defs>
</svg>
